<svg width="32.000000" height="32.000000" viewBox="0 0 32 32" fill="none" xmlns="http://www.w3.org/2000/svg" xmlns:xlink="http://www.w3.org/1999/xlink">
	<desc>
			Created with Pixso.
	</desc>
	<defs>
		<clipPath id="clip54_115">
			<rect id="Logo x64" width="32.000000" height="32.000000" fill="white" fill-opacity="0"/>
		</clipPath>
	</defs>
	<g clip-path="url(#clip54_115)">
		<path id="Vector 1 (Border)" d="M13.94 6.04L4.77 25.56C4.61 25.9 4.85 26.28 5.22 26.28L8.72 26.28C8.9 26.28 9.08 26.17 9.16 26L14.57 15.27L14.57 25.78C14.57 26.05 14.8 26.28 15.07 26.28L18.32 26.27C18.52 26.27 18.7 26.16 18.78 25.99L23.28 16.3L23.28 25.77C23.28 26.05 23.51 26.27 23.78 26.27L27.06 26.27C27.33 26.27 27.56 26.05 27.56 25.77L27.56 6.21C27.56 5.94 27.33 5.71 27.06 5.71L23.41 5.72C23.21 5.72 23.03 5.84 22.95 6.02L18.38 16.84L18.38 6.25C18.38 5.97 18.16 5.75 17.88 5.75L14.4 5.75C14.2 5.75 14.03 5.86 13.94 6.04Z" fill="#C13442" fill-opacity="1.000000" fill-rule="evenodd"/>
	</g>
</svg>
